# xmcd
#
# Track frame offsets:
#	150
#	16780
#	34932
#	51720
#	63232
#	76332
#	92015
#	106605
#	120785
#	139182
#
# Disc length: 2060 seconds
#
# Revision: 6
# Processed by: cddbd v1.5.2PL0 Copyright (c) Steve Scherf et al.
# Submitted via: EZCDAudioConverter 6.0.4.1
#
DISCID=75080a0a
DTITLE=Eddie Rabbitt - Greatest Hits - Ten Best Series
DYEAR=1995
DGENRE=Country
TTITLE0=Step By Step
TTITLE1=You and I
TTITLE2=You Can't Run from Love
TTITLE3=B-B-B-Burnin' Up with Love
TTITLE4=Warning Sign
TTITLE5=Someone Could Lose a Heart Tonight
TTITLE6=The Best Year of My Life
TTITLE7=She's Comin' Back to Say Goodbye
TTITLE8=Runnin' with the Wind
TTITLE9=Years After You
EXTD=
EXTT0=
EXTT1=
EXTT2=
EXTT3=
EXTT4=
EXTT5=
EXTT6=
EXTT7=
EXTT8=
EXTT9=
PLAYORDER=
